<svg width="282" height="37" viewBox="0 0 282 37" fill="none" xmlns="http://www.w3.org/2000/svg">
<g filter="url(#filter0_d_186_9277)">
<rect x="4" width="274" height="29" rx="14.5" fill="#00A54F"/>
<path d="M68.9146 12.9V13.96H75.3346V12.9H68.9146ZM68.9146 10.76V13.39H70.2346V10.76H68.9146ZM67.8846 14.94V15.99H76.2646V14.94H67.8846ZM71.3946 13.57V15.4H72.7246V13.57H71.3946ZM68.8146 16.7V17.76H73.9046V19.89H75.2346V16.7H68.8146ZM78.7438 11.16V12.22C78.7438 13.27 78.2338 14.42 76.9438 14.99L77.6438 16.02C79.1538 15.37 79.7838 13.8 79.7838 12.22V11.16H78.7438ZM78.9838 11.16V12.22C78.9838 13.76 79.5938 15.18 81.0338 15.77L81.7338 14.76C80.5138 14.25 80.0238 13.25 80.0238 12.22V11.16H78.9838ZM83.7038 10.64V16.25H84.9638V10.64H83.7038ZM82.5938 12.88V13.96H84.0638V12.88H82.5938ZM81.7438 10.78V16.2H82.9838V10.78H81.7438ZM78.6038 16.65V17.71H83.6438V19.89H84.9638V16.65H78.6038ZM92.963 10.63V19.89H94.233V10.63H92.963ZM91.853 14.16V15.23H93.383V14.16H91.853ZM90.933 10.77V19.47H92.183V10.77H90.933ZM86.533 11.58V17.58H90.193V11.58H86.533ZM88.953 12.62V16.54H87.773V12.62H88.953ZM97.5323 11.66V12.24C97.5323 13.42 96.8823 14.63 95.3423 15.14L96.0023 16.19C97.7923 15.6 98.6223 14.01 98.6223 12.24V11.66H97.5323ZM97.8023 11.66V12.24C97.8023 13.89 98.6023 15.34 100.362 15.87L100.992 14.83C99.5023 14.38 98.8823 13.32 98.8823 12.24V11.66H97.8023ZM95.6923 11.25V12.31H100.692V11.25H95.6923ZM101.432 10.63V16.12H102.762V10.63H101.432ZM102.392 12.76V13.85H103.992V12.76H102.392ZM99.7423 16.29C97.8123 16.29 96.6023 16.96 96.6023 18.09C96.6023 19.22 97.8123 19.89 99.7423 19.89C101.662 19.89 102.872 19.22 102.872 18.09C102.872 16.96 101.662 16.29 99.7423 16.29ZM99.7423 17.33C100.922 17.33 101.552 17.57 101.552 18.09C101.552 18.61 100.922 18.87 99.7423 18.87C98.5623 18.87 97.9223 18.61 97.9223 18.09C97.9223 17.57 98.5623 17.33 99.7423 17.33ZM109.167 12.09V13.13C109.167 14.7 108.417 16.41 106.867 17.1L107.617 18.15C109.357 17.36 110.227 15.27 110.227 13.13V12.09H109.167ZM109.467 12.09V13.13C109.467 15.19 110.327 17.16 112.087 17.92L112.807 16.87C111.257 16.23 110.517 14.63 110.517 13.13V12.09H109.467ZM107.237 11.52V12.61H112.427V11.52H107.237ZM113.287 10.63V19.89H114.627V10.63H113.287ZM121.156 12.87V13.95H122.916V12.87H121.156ZM122.556 10.63V16.13H123.886V10.63H122.556ZM120.746 16.33C118.786 16.33 117.576 17 117.576 18.12C117.576 19.25 118.786 19.9 120.746 19.9C122.706 19.9 123.916 19.25 123.916 18.12C123.916 17 122.706 16.33 120.746 16.33ZM120.746 17.34C121.956 17.34 122.596 17.59 122.596 18.12C122.596 18.64 121.956 18.89 120.746 18.89C119.546 18.89 118.906 18.64 118.906 18.12C118.906 17.59 119.546 17.34 120.746 17.34ZM118.276 11.56V12.14C118.276 13.33 117.616 14.56 116.086 15.08L116.766 16.13C118.536 15.53 119.356 13.91 119.356 12.14V11.56H118.276ZM118.556 11.56V12.14C118.556 13.79 119.346 15.33 121.066 15.9L121.716 14.85C120.256 14.36 119.626 13.23 119.626 12.14V11.56H118.556ZM116.446 11.19V12.25H121.426V11.19H116.446ZM132.281 12.67V13.74H134.601V12.67H132.281ZM130.161 11.01C128.761 11.01 127.711 11.94 127.711 13.22C127.711 14.51 128.761 15.43 130.161 15.43C131.551 15.43 132.601 14.51 132.601 13.22C132.601 11.94 131.551 11.01 130.161 11.01ZM130.161 12.12C130.841 12.12 131.331 12.53 131.331 13.22C131.331 13.91 130.841 14.33 130.161 14.33C129.481 14.33 128.981 13.91 128.981 13.22C128.981 12.53 129.481 12.12 130.161 12.12ZM134.021 10.63V15.61H135.351V10.63H134.021ZM129.201 16.01V19.79H135.351V16.01H134.031V16.89H130.521V16.01H129.201ZM130.521 17.91H134.031V18.73H130.521V17.91ZM140.57 14.14V15.21H142.04V14.14H140.57ZM138.42 13.2V13.44C138.42 14.86 137.95 16.38 136.63 17.15L137.38 18.15C138.86 17.3 139.42 15.37 139.42 13.44V13.2H138.42ZM138.68 13.2V13.44C138.68 15.34 139.25 17.15 140.75 17.93L141.47 16.95C140.16 16.25 139.68 14.84 139.68 13.44V13.2H138.68ZM136.98 12.18V13.25H141.11V12.18H136.98ZM138.42 10.94V13.05H139.68V10.94H138.42ZM143.49 10.63V19.89H144.75V10.63H143.49ZM141.62 10.78V19.47H142.86V10.78H141.62ZM154.645 10.62V19.91H155.975V10.62H154.645ZM148.765 16.67V17.75H149.585C151.275 17.75 152.635 17.7 154.135 17.43L154.005 16.36C152.535 16.61 151.225 16.67 149.585 16.67H148.765ZM148.755 11.41V12.47H151.765V13.94H148.765V17.07H150.115V14.99H153.125V11.41H148.755ZM160.904 11.16V11.83C160.904 13.16 159.754 14.63 157.664 14.99L158.234 16.09C160.634 15.62 162.064 13.84 162.064 11.83V11.16H160.904ZM161.174 11.16V11.83C161.174 13.87 162.594 15.62 164.994 16.09L165.564 14.99C163.464 14.63 162.324 13.19 162.324 11.83V11.16H161.174ZM157.474 17.68V18.76H165.854V17.68H157.474ZM167.654 15.4V16.44H174.164V15.4H167.654ZM166.674 17.75V18.83H175.054V17.75H166.674ZM167.654 11.3V15.69H169.004V12.37H174.084V11.3H167.654ZM168.594 13.34V14.37H173.874V13.34H168.594ZM178.139 17.74V18.82H186.519V17.74H178.139ZM181.649 15.76V18H182.979V15.76H181.649ZM179.019 11.22V16.04H185.609V11.22H184.289V12.64H180.339V11.22H179.019ZM180.339 13.68H184.289V14.98H180.339V13.68ZM193.748 10.62V19.91H195.078V10.62H193.748ZM192.298 13.96V15.03H194.018V13.96H192.298ZM187.648 16.67V17.77H188.408C189.948 17.77 191.188 17.72 192.558 17.49L192.438 16.41C191.098 16.64 189.908 16.67 188.408 16.67H187.648ZM187.628 11.41V12.47H190.488V13.84H187.648V17H188.968V14.89H191.798V11.41H187.628ZM202.447 10.62V19.88H203.787V10.62H202.447ZM203.437 14.16V15.25H205.067V14.16H203.437ZM200.017 11.58V11.81C200.017 14.32 198.867 16.02 196.437 17.28L197.177 18.29C200.257 16.74 201.317 14.36 201.317 11.58H200.017ZM196.947 11.58V12.65H200.697V11.58H196.947ZM212.106 10.63V19.89H213.446V10.63H212.106ZM209.376 11.59V11.83C209.376 14.31 208.416 15.99 205.756 17.27L206.446 18.33C209.736 16.74 210.696 14.42 210.696 11.59H209.376ZM206.246 11.59V12.64H210.006V11.59H206.246Z" fill="white"/>
</g>
<defs>
<filter id="filter0_d_186_9277" x="0" y="0" width="282" height="37" filterUnits="userSpaceOnUse" color-interpolation-filters="sRGB">
<feFlood flood-opacity="0" result="BackgroundImageFix"/>
<feColorMatrix in="SourceAlpha" type="matrix" values="0 0 0 0 0 0 0 0 0 0 0 0 0 0 0 0 0 0 127 0" result="hardAlpha"/>
<feOffset dy="4"/>
<feGaussianBlur stdDeviation="2"/>
<feComposite in2="hardAlpha" operator="out"/>
<feColorMatrix type="matrix" values="0 0 0 0 0 0 0 0 0 0 0 0 0 0 0 0 0 0 0.25 0"/>
<feBlend mode="normal" in2="BackgroundImageFix" result="effect1_dropShadow_186_9277"/>
<feBlend mode="normal" in="SourceGraphic" in2="effect1_dropShadow_186_9277" result="shape"/>
</filter>
</defs>
</svg>
