<svg width="480" height="52.5" viewBox="0 0 720 84" fill="none" xmlns="http://www.w3.org/2000/svg">
<rect width="720" height="84" fill="white"/>
<rect width="720" height="84" fill="white"/>
<rect opacity="0.35" x="646.26" y="33.78" width="41.24" height="20.76" rx="2.16667" stroke="black"/>
<path opacity="0.4" d="M689.92 40.3201V48.0001C691.465 47.3496 692.47 45.8365 692.47 44.1601C692.47 42.4837 691.465 40.9705 689.92 40.3201Z" fill="black"/>
<rect x="649.6" y="37.1201" width="34.56" height="14.08" rx="1.33333" fill="black"/>
<path fill-rule="evenodd" clip-rule="evenodd" d="M621.44 37.6611C625.712 37.6613 629.82 39.3012 632.916 42.2418C633.149 42.4689 633.522 42.466 633.751 42.2354L635.98 39.9884C636.096 39.8714 636.161 39.713 636.16 39.5482C636.159 39.3834 636.092 39.2257 635.974 39.1101C627.849 31.3298 615.031 31.3298 606.905 39.1101C606.788 39.2256 606.721 39.3832 606.72 39.548C606.719 39.7129 606.783 39.8713 606.9 39.9884L609.129 42.2354C609.358 42.4663 609.731 42.4692 609.964 42.2418C613.06 39.301 617.169 37.6611 621.44 37.6611ZM621.44 44.9717C623.787 44.9715 626.051 45.8431 627.79 47.4171C628.026 47.6405 628.396 47.6356 628.626 47.4062L630.851 45.1591C630.969 45.0413 631.034 44.8814 631.032 44.7152C631.03 44.5491 630.962 44.3905 630.842 44.2751C625.545 39.3514 617.341 39.3514 612.043 44.2751C611.923 44.3905 611.855 44.5492 611.854 44.7154C611.852 44.8816 611.917 45.0414 612.035 45.1591L614.26 47.4062C614.489 47.6356 614.86 47.6405 615.095 47.4171C616.834 45.8441 619.095 44.9726 621.44 44.9717ZM625.899 49.8904C625.903 50.057 625.837 50.2176 625.718 50.3344L621.868 54.2166C621.755 54.3307 621.601 54.3949 621.441 54.3949C621.28 54.3949 621.126 54.3307 621.013 54.2166L617.162 50.3344C617.043 50.2175 616.978 50.0569 616.982 49.8902C616.985 49.7236 617.057 49.5659 617.181 49.4542C619.64 47.3762 623.241 47.3762 625.7 49.4542C625.824 49.5659 625.896 49.7238 625.899 49.8904Z" fill="black"/>
<path fill-rule="evenodd" clip-rule="evenodd" d="M595.2 33.9199H593.28C592.22 33.9199 591.36 34.7795 591.36 35.8399V52.4799C591.36 53.5403 592.22 54.3999 593.28 54.3999H595.2C596.26 54.3999 597.12 53.5403 597.12 52.4799V35.8399C597.12 34.7795 596.26 33.9199 595.2 33.9199ZM584.32 38.3999H586.24C587.3 38.3999 588.16 39.2595 588.16 40.3199V52.4799C588.16 53.5403 587.3 54.3999 586.24 54.3999H584.32C583.26 54.3999 582.4 53.5403 582.4 52.4799V40.3199C582.4 39.2595 583.26 38.3999 584.32 38.3999ZM577.28 42.8799H575.36C574.3 42.8799 573.44 43.7395 573.44 44.7999V52.4799C573.44 53.5403 574.3 54.3999 575.36 54.3999H577.28C578.34 54.3999 579.2 53.5403 579.2 52.4799V44.7999C579.2 43.7395 578.34 42.8799 577.28 42.8799ZM568.32 46.7199H566.4C565.34 46.7199 564.48 47.5795 564.48 48.6399V52.4799C564.48 53.5403 565.34 54.3999 566.4 54.3999H568.32C569.38 54.3999 570.24 53.5403 570.24 52.4799V48.6399C570.24 47.5795 569.38 46.7199 568.32 46.7199Z" fill="black"/>
<path fill-rule="evenodd" clip-rule="evenodd" d="M63.6626 54.9062C68.7673 54.9062 71.847 50.8563 71.847 44.0219V43.9937C71.847 36.6812 68.0782 33.6016 63.747 33.6016C59.3454 33.6016 56.2095 36.6109 56.2095 40.7312V40.7594C56.2095 44.6125 58.9376 47.4531 62.8329 47.4531C65.6173 47.4531 67.3892 46.0328 68.1345 44.4297H68.4157C68.4157 44.507 68.4122 44.5843 68.4087 44.6617L68.4087 44.6617L68.4087 44.6618C68.4052 44.7391 68.4017 44.8164 68.4017 44.8938C68.247 48.775 66.8829 51.925 63.6626 51.925C61.8767 51.925 60.6251 50.9969 60.0907 49.5766L60.0485 49.4359H56.4767L56.5048 49.5906C57.1517 52.6984 59.936 54.9062 63.6626 54.9062ZM63.7329 44.6687C61.4267 44.6687 59.7532 42.9812 59.7532 40.6328V40.6047C59.7532 38.3406 61.5392 36.5547 63.7751 36.5547C66.0251 36.5547 67.7829 38.3688 67.7829 40.6891V40.7172C67.7829 43.0094 66.0251 44.6687 63.7329 44.6687ZM77.6413 36.8078C78.935 36.8078 79.8772 37.7781 79.8772 39.0297C79.8772 40.2672 78.935 41.2516 77.6413 41.2516C76.3616 41.2516 75.4053 40.2672 75.4053 39.0297C75.4053 37.7781 76.3616 36.8078 77.6413 36.8078ZM77.6413 51.6859C78.935 51.6859 79.8772 50.7156 79.8772 49.4641C79.8772 48.2125 78.935 47.2422 77.6413 47.2422C76.3616 47.2422 75.4053 48.2125 75.4053 49.4641C75.4053 50.7156 76.3616 51.6859 77.6413 51.6859ZM96.7668 50.5047V54.4H93.2934V50.5047H83.3653V47.5375C85.995 42.9672 88.8778 38.2984 91.634 34.1078H96.7668V47.5094H99.495V50.5047H96.7668ZM93.3497 47.5938H86.7403V47.3828C88.709 43.9375 91.0575 40.1828 93.1387 37.0047H93.3497V47.5938ZM110.956 34.1078V54.4H107.328V37.6797H107.089L102.041 41.2516V37.8344L107.342 34.1078H110.956Z" fill="black"/>
</svg>
