<svg width="35" height="35" viewBox="0 0 24 24" fill="none" xmlns="http://www.w3.org/2000/svg">
<path fill-rule="evenodd" clip-rule="evenodd" d="M19.9977 14C19.9977 15.11 20.8977 16 21.9977 16C23.3377 16 23.3377 18 21.9977 18H1.99774C0.667744 18 0.667744 16 1.99774 16C3.10774 16 3.99774 15.11 3.99774 14V9C3.99774 4.58 7.58774 1 11.9977 1C12.2677 1 12.5277 1.01 12.7877 1.04C12.8077 1.04 12.8252 1.0425 12.8427 1.045C12.8602 1.0475 12.8777 1.05 12.8977 1.05C13.4477 1.12 13.8377 1.62 13.7777 2.17C13.7077 2.67 13.2777 3.05 12.7677 3.05C12.7471 3.05 12.7295 3.04747 12.712 3.04495C12.6948 3.04247 12.6776 3.04 12.6577 3.04C12.6477 3.04 12.6352 3.0375 12.6227 3.035C12.6102 3.0325 12.5977 3.03 12.5877 3.03C12.3977 3.01 12.1977 3 11.9977 3C8.68774 3 5.99774 5.69 5.99774 9V14C5.99774 14.73 5.80774 15.41 5.46774 16H18.5377C18.1977 15.41 17.9977 14.73 17.9977 14V9.58C17.9977 9.03 18.4477 8.58 18.9977 8.58C19.5477 8.58 19.9977 9.03 19.9977 9.58V14ZM12.0018 22.9984C13.0718 22.9984 14.0598 22.4284 14.5968 21.5034C14.9838 20.8364 14.5018 20.0014 13.7318 20.0014H10.2718C9.50084 20.0014 9.01984 20.8364 9.40684 21.5034C9.94384 22.4284 10.9318 22.9984 12.0018 22.9984Z" fill="#111111"/>
<path fill-rule="evenodd" clip-rule="evenodd" d="M17.9905 6.6084C19.3705 6.6084 20.4905 5.4894 20.4905 4.1084C20.4905 2.7284 19.3705 1.6084 17.9905 1.6084C16.6095 1.6084 15.4905 2.7284 15.4905 4.1084C15.4905 5.4894 16.6095 6.6084 17.9905 6.6084Z" fill="#FF383B"/>
</svg>
